<svg width="24" height="24" viewBox="0 0 24 24" fill="none" xmlns="http://www.w3.org/2000/svg">
    <path d="M4 5C4 4.44772 4.44772 4 5 4H9C9.55228 4 10 3.55228 10 3C10 2.44772 9.55228 2 9 2H5C3.34315 2 2 3.34315 2 5V9C2 9.55228 2.44772 10 3 10C3.55228 10 4 9.55228 4 9V5Z" fill="black"/>
    <path d="M20 5C20 4.44772 19.5523 4 19 4H15C14.4477 4 14 3.55228 14 3C14 2.44772 14.4477 2 15 2H19C20.6569 2 22 3.34315 22 5V9C22 9.55228 21.5523 10 21 10C20.4477 10 20 9.55228 20 9V5Z" fill="black"/>
    <path d="M5 20C4.44772 20 4 19.5523 4 19V15C4 14.4477 3.55228 14 3 14C2.44772 14 2 14.4477 2 15V19C2 20.6569 3.34315 22 5 22H9C9.55228 22 10 21.5523 10 21C10 20.4477 9.55228 20 9 20H5Z" fill="black"/>
    <path d="M20 19C20 19.5523 19.5523 20 19 20H15C14.4477 20 14 20.4477 14 21C14 21.5523 14.4477 22 15 22H19C20.6569 22 22 20.6569 22 19V15C22 14.4477 21.5523 14 21 14C20.4477 14 20 14.4477 20 15V19Z" fill="black"/>
</svg>
