<svg width="24" height="24" viewBox="0 0 24 24" fill="none" xmlns="http://www.w3.org/2000/svg">
    <path d="M8 7C8 7.55228 7.55228 8 7 8H3C2.44772 8 2 8.44772 2 9C2 9.55228 2.44772 10 3 10H7C8.65685 10 10 8.65685 10 7V3C10 2.44772 9.55228 2 9 2C8.44772 2 8 2.44772 8 3V7Z" fill="black"/>
    <path d="M16 7C16 7.55228 16.4477 8 17 8H21C21.5523 8 22 8.44772 22 9C22 9.55228 21.5523 10 21 10H17C15.3431 10 14 8.65685 14 7V3C14 2.44772 14.4477 2 15 2C15.5523 2 16 2.44772 16 3V7Z" fill="black"/>
    <path d="M7 16C7.55228 16 8 16.4477 8 17V21C8 21.5523 8.44772 22 9 22C9.55228 22 10 21.5523 10 21V17C10 15.3431 8.65685 14 7 14H3C2.44772 14 2 14.4477 2 15C2 15.5523 2.44772 16 3 16H7Z" fill="black"/>
    <path d="M16 17C16 16.4477 16.4477 16 17 16H21C21.5523 16 22 15.5523 22 15C22 14.4477 21.5523 14 21 14H17C15.3431 14 14 15.3431 14 17V21C14 21.5523 14.4477 22 15 22C15.5523 22 16 21.5523 16 21V17Z" fill="black"/>
</svg>
